Coordinates
version=1
nRows=34
nColumns=38
inDegrees=no

Units are S.I. units (second, meters, Newtons, ...)
If the header above contains a line with 'inDegrees', this indicates whether rotational values are in degrees (yes) or radians (no).

endheader
time	pelvis_tilt	pelvis_list	pelvis_rotation	pelvis_tx	pelvis_ty	pelvis_tz	hip_flexion_r	hip_adduction_r	hip_rotation_r	knee_angle_r	ankle_angle_r	subtalar_angle_r	mtp_angle_r	hip_flexion_l	hip_adduction_l	hip_rotation_l	knee_angle_l	ankle_angle_l	subtalar_angle_l	mtp_angle_l	lumbar_extension	lumbar_bending	lumbar_rotation	arm_flex_r	arm_add_r	arm_rot_r	elbow_flex_r	pro_sup_r	wrist_flex_r	wrist_dev_r	arm_flex_l	arm_add_l	arm_rot_l	elbow_flex_l	pro_sup_l	wrist_flex_l	wrist_dev_l
1.67	3.0431	1.30517	-1.39536	0.590804	1.37303	0.95548	0.00708983	-0.117957	-0.157798	1.28638	-0.357891	0	0	-0.161415	-0.062896	-0.456353	0.404043	-0.1832	0	0	-0.390953	-0.0105925	-0.202335	0.222265	-0.500774	1.36472	0.679191	0.162151	0	0	-0.362921	-0.419858	-0.0150172	0.985344	1.51109	0	0
1.68	3.02657	1.30666	-1.37723	0.589912	1.38265	0.956409	0.0370877	-0.117695	-0.163594	1.29084	-0.346407	0	0	-0.173987	-0.0658144	-0.452406	0.396374	-0.179565	0	0	-0.388906	-0.0050846	-0.205136	0.227815	-0.50152	1.37257	0.677104	0.161837	0	0	-0.351956	-0.425352	-0.0131859	0.986372	1.51562	0	0
1.69	3.00819	1.30853	-1.3568	0.588945	1.39224	0.957193	0.0653589	-0.117722	-0.170271	1.28841	-0.333759	0	0	-0.185773	-0.0689561	-0.447109	0.388248	-0.175488	0	0	-0.386196	0.00111963	-0.207567	0.232712	-0.502216	1.38112	0.674543	0.161389	0	0	-0.340104	-0.430539	-0.0112875	0.986814	1.52015	0	0
1.7	2.98861	1.30935	-1.33471	0.587971	1.40189	0.957894	0.0905744	-0.117049	-0.17675	1.28071	-0.319704	0	0	-0.198546	-0.0729631	-0.442156	0.379991	-0.171448	0	0	-0.384043	0.00796897	-0.210135	0.237298	-0.503174	1.38989	0.672092	0.160957	0	0	-0.328332	-0.434866	-0.0104464	0.987822	1.52369	0	0
1.71	2.97012	1.3087	-1.31276	0.586997	1.41145	0.958524	0.112427	-0.115944	-0.184072	1.26912	-0.302627	0	0	-0.212455	-0.0776181	-0.43721	0.372194	-0.167557	0	0	-0.383522	0.0151047	-0.213682	0.241735	-0.504228	1.39734	0.670339	0.15958	0	0	-0.316917	-0.438884	-0.0112682	0.990434	1.5254	0	0
1.72	2.95392	1.30727	-1.29288	0.585968	1.42081	0.959026	0.132108	-0.115198	-0.191719	1.25404	-0.283383	0	0	-0.22687	-0.0820414	-0.433457	0.364913	-0.163762	0	0	-0.384375	0.0221194	-0.217554	0.246321	-0.505911	1.40393	0.670176	0.157729	0	0	-0.305383	-0.442824	-0.0132067	0.994663	1.52662	0	0
1.73	2.94047	1.30503	-1.27575	0.584948	1.43009	0.959438	0.148923	-0.114587	-0.198985	1.23534	-0.2574	0	0	-0.24254	-0.0857586	-0.429434	0.356974	-0.158996	0	0	-0.386726	0.0286476	-0.221383	0.251662	-0.508202	1.41264	0.671804	0.154558	0	0	-0.294253	-0.445948	-0.0174827	1.0002	1.52793	0	0
1.74	2.9289	1.30353	-1.26031	0.584028	1.43944	0.959665	0.1642	-0.114661	-0.206547	1.21347	-0.235002	0	0	-0.257624	-0.0892108	-0.426345	0.349385	-0.155106	0	0	-0.388425	0.0341905	-0.224992	0.255763	-0.509912	1.41966	0.67268	0.153331	0	0	-0.283315	-0.44885	-0.0218167	1.00648	1.52566	0	0
1.75	2.9195	1.30263	-1.24751	0.583244	1.44883	0.959669	0.177826	-0.115139	-0.213534	1.18806	-0.20887	0	0	-0.272533	-0.0920067	-0.424198	0.341467	-0.150447	0	0	-0.389661	0.03854	-0.228312	0.259649	-0.511182	1.42698	0.673441	0.152237	0	0	-0.272849	-0.451515	-0.0269343	1.01353	1.52459	0	0
1.76	2.91185	1.30304	-1.23704	0.582625	1.45823	0.959383	0.191956	-0.115818	-0.219366	1.1548	-0.193955	0	0	-0.286093	-0.0941209	-0.423015	0.334149	-0.145889	0	0	-0.389812	0.0414938	-0.230863	0.262299	-0.512171	1.43226	0.674251	0.1517	0	0	-0.262324	-0.454522	-0.0316614	1.02113	1.5238	0	0
1.77	2.9067	1.30307	-1.22803	0.581976	1.46748	0.959004	0.202736	-0.116342	-0.225481	1.1172	-0.181312	0	0	-0.299778	-0.0959047	-0.419814	0.326817	-0.14106	0	0	-0.39096	0.0441695	-0.234177	0.264808	-0.512828	1.4365	0.675005	0.150894	0	0	-0.251333	-0.457452	-0.0365569	1.02931	1.52331	0	0
1.78	2.9034	1.30344	-1.22052	0.581389	1.4768	0.958516	0.210613	-0.116686	-0.231569	1.07723	-0.168035	0	0	-0.313306	-0.0973384	-0.416204	0.319273	-0.13678	0	0	-0.392016	0.0461741	-0.237487	0.266538	-0.512673	1.44026	0.674911	0.150401	0	0	-0.240105	-0.460071	-0.0412663	1.03734	1.52391	0	0
1.79	2.90201	1.3037	-1.21515	0.580918	1.48621	0.957942	0.215575	-0.11664	-0.23707	1.03554	-0.153573	0	0	-0.327379	-0.0985643	-0.413563	0.311653	-0.132993	0	0	-0.393392	0.0473557	-0.240456	0.267616	-0.511846	1.44326	0.674163	0.150109	0	0	-0.229128	-0.462639	-0.0458898	1.0455	1.52512	0	0
1.8	2.92181	1.31154	-1.2318	0.581401	1.49666	0.955628	0.216895	-0.122843	-0.222167	0.900327	-0.236982	0	0	-0.336406	-0.0937022	-0.413801	0.307631	-0.123587	0	0	-0.386288	0.0376806	-0.246863	0.265564	-0.510599	1.4465	0.67832	0.149266	0	0	-0.228851	-0.468822	-0.0553765	1.06219	1.52559	0	0
1.81	2.92611	1.31445	-1.23304	0.58133	1.50636	0.954508	0.222162	-0.123933	-0.224573	0.843829	-0.244321	0	0	-0.34853	-0.0930211	-0.411135	0.301124	-0.119423	0	0	-0.385061	0.0357017	-0.24917	0.264741	-0.508976	1.44863	0.677553	0.149913	0	0	-0.218992	-0.472425	-0.0579433	1.07051	1.5259	0	0
1.82	2.93127	1.31765	-1.23541	0.581424	1.5162	0.953248	0.224614	-0.124202	-0.226705	0.783429	-0.245098	0	0	-0.360639	-0.0921889	-0.408269	0.294472	-0.114669	0	0	-0.383471	0.0331122	-0.251333	0.262784	-0.506653	1.44794	0.675885	0.149655	0	0	-0.20996	-0.47606	-0.0603903	1.07912	1.52664	0	0
1.83	2.9368	1.32228	-1.23852	0.581607	1.52611	0.95175	0.225987	-0.124024	-0.228732	0.719906	-0.241742	0	0	-0.370797	-0.0911868	-0.407113	0.289011	-0.109783	0	0	-0.380478	0.0298665	-0.253143	0.260053	-0.504076	1.44615	0.67395	0.149785	0	0	-0.20116	-0.479432	-0.0623319	1.08738	1.52774	0	0
1.84	2.94215	1.32857	-1.24202	0.581871	1.53617	0.949953	0.226576	-0.123443	-0.230692	0.653132	-0.235037	0	0	-0.378947	-0.0896837	-0.406235	0.284395	-0.104751	0	0	-0.375536	0.0260289	-0.254326	0.257033	-0.501678	1.4453	0.671931	0.151964	0	0	-0.192724	-0.482434	-0.0635127	1.09506	1.52861	0	0
1.85	2.94791	1.33634	-1.2463	0.5822	1.54636	0.947828	0.22625	-0.122683	-0.232843	0.583067	-0.225156	0	0	-0.385086	-0.0877752	-0.405469	0.281317	-0.0989562	0	0	-0.36876	0.0215792	-0.255346	0.253485	-0.49941	1.44402	0.670118	0.154628	0	0	-0.185193	-0.484903	-0.0646183	1.10259	1.52902	0	0
1.86	2.95407	1.34502	-1.25174	0.582716	1.55666	0.945494	0.225003	-0.12101	-0.23372	0.510397	-0.213241	0	0	-0.389706	-0.0856883	-0.4048	0.279961	-0.0922972	0	0	-0.360849	0.0164988	-0.255744	0.249416	-0.496834	1.44193	0.668064	0.157154	0	0	-0.178449	-0.487194	-0.0655555	1.10994	1.52863	0	0
1.87	2.9599	1.35437	-1.25774	0.583459	1.5671	0.943028	0.222454	-0.118142	-0.232098	0.435443	-0.202192	0	0	-0.393166	-0.0836011	-0.403855	0.280076	-0.0853816	0	0	-0.351942	0.0109214	-0.25539	0.244743	-0.493792	1.43904	0.665443	0.159654	0	0	-0.172573	-0.489362	-0.0664365	1.11713	1.52817	0	0
1.88	2.96572	1.3641	-1.26499	0.584358	1.57762	0.9405	0.218506	-0.114343	-0.226815	0.3592	-0.194659	0	0	-0.395919	-0.0811524	-0.403522	0.28145	-0.0781056	0	0	-0.342577	0.00505846	-0.253946	0.240217	-0.490525	1.43642	0.662454	0.162841	0	0	-0.167451	-0.491061	-0.0673326	1.12397	1.52781	0	0
1.89	2.97145	1.37367	-1.27342	0.585359	1.58812	0.937987	0.213518	-0.109838	-0.217014	0.283779	-0.191828	0	0	-0.39839	-0.0785078	-0.403665	0.284002	-0.0705708	0	0	-0.333506	-0.00077388	-0.251436	0.236361	-0.487184	1.43449	0.65919	0.166687	0	0	-0.162888	-0.492259	-0.0683672	1.1306	1.52711	0	0
1.9	2.89068	1.35036	-1.19005	0.584402	1.59613	0.941697	0.162254	-0.0662762	-0.242191	0.226655	-0.157275	0	0	-0.426527	-0.101744	-0.395208	0.277095	-0.0777387	0	0	-0.360653	0.0291705	-0.242975	0.243892	-0.476586	1.43637	0.631471	0.172573	0	0	-0.132232	-0.480732	-0.0626901	1.11499	1.53432	0	0
1.91	2.97798	1.39072	-1.28516	0.587525	1.6093	0.933267	0.202516	-0.0998653	-0.195507	0.151324	-0.192236	0	0	-0.403247	-0.0762199	-0.402619	0.292183	-0.0580656	0	0	-0.317524	-0.0100717	-0.247168	0.229246	-0.479105	1.42883	0.650904	0.174643	0	0	-0.156648	-0.492314	-0.0736801	1.14317	1.52673	0	0
1.92	2.87766	1.35877	-1.17942	0.586624	1.61745	0.938113	0.128375	-0.0452239	-0.207541	0.0648285	-0.194613	0	0	-0.437821	-0.107371	-0.393821	0.286444	-0.0696328	0	0	-0.353155	0.0267138	-0.240479	0.238924	-0.466896	1.43203	0.620399	0.181121	0	0	-0.126065	-0.479668	-0.0686966	1.1259	1.53576	0	0
1.93	2.86962	1.36018	-1.17188	0.587561	1.62812	0.936645	0.119962	-0.0373249	-0.204972	0.0276827	-0.203557	0	0	-0.444699	-0.112096	-0.394022	0.293474	-0.0692139	0	0	-0.352419	0.0278972	-0.239728	0.238414	-0.464117	1.43186	0.617587	0.183734	0	0	-0.123443	-0.478341	-0.0713613	1.13058	1.53605	0	0
1.94	2.85886	1.36068	-1.16158	0.588487	1.6389	0.935352	0.118013	-0.0292551	-0.210123	0.021062	-0.205916	0	0	-0.451725	-0.11786	-0.394552	0.301337	-0.0687773	0	0	-0.352085	0.0302858	-0.238645	0.237985	-0.461655	1.432	0.615105	0.185073	0	0	-0.120841	-0.476943	-0.0723479	1.13374	1.53542	0	0
1.95	2.84701	1.35814	-1.14887	0.589282	1.64985	0.934389	0.1179	-0.0207524	-0.220741	0.0376317	-0.20601	0	0	-0.460877	-0.126127	-0.397046	0.311236	-0.0681319	0	0	-0.354505	0.0346364	-0.23925	0.238259	-0.458942	1.43241	0.612558	0.186964	0	0	-0.120146	-0.474797	-0.0750196	1.13746	1.53455	0	0
1.96	2.83838	1.35387	-1.13852	0.5899	1.661	0.933645	0.121938	-0.0140495	-0.237867	0.0830922	-0.191376	0	0	-0.471804	-0.134556	-0.399565	0.321216	-0.0699212	0	0	-0.35874	0.0397445	-0.241599	0.23933	-0.457504	1.43323	0.612612	0.188718	0	0	-0.121739	-0.472125	-0.0791209	1.14174	1.53367	0	0
1.97	2.83047	1.35028	-1.1289	0.59053	1.67243	0.932926	0.126458	-0.00812009	-0.249783	0.132411	-0.175676	0	0	-0.481991	-0.142573	-0.402225	0.331608	-0.0734179	0	0	-0.361682	0.0447455	-0.244209	0.239936	-0.456565	1.43446	0.613592	0.190026	0	0	-0.12464	-0.469009	-0.0828942	1.14494	1.53272	0	0
1.98	2.82253	1.34706	-1.11876	0.591171	1.68417	0.932283	0.128231	-0.00155574	-0.255174	0.174855	-0.163234	0	0	-0.491608	-0.150713	-0.404886	0.342352	-0.0783254	0	0	-0.36349	0.0499368	-0.24754	0.239895	-0.455302	1.43603	0.614218	0.190924	0	0	-0.128985	-0.465928	-0.0859414	1.14711	1.53202	0	0
1.99	2.81282	1.34381	-1.10601	0.591806	1.69619	0.93178	0.127106	0.00642704	-0.256065	0.207663	-0.150545	0	0	-0.500409	-0.159849	-0.407419	0.35422	-0.084788	0	0	-0.36462	0.0559194	-0.251651	0.238911	-0.45358	1.43689	0.613987	0.190819	0	0	-0.134347	-0.462823	-0.0882243	1.14814	1.5316	0	0
2	2.80082	1.34112	-1.09053	0.59246	1.70843	0.931366	0.124058	0.0150881	-0.255886	0.227941	-0.14242	0	0	-0.507052	-0.170006	-0.410369	0.368794	-0.0933709	0	0	-0.36472	0.0625104	-0.256214	0.237417	-0.451685	1.4381	0.613368	0.190754	0	0	-0.14057	-0.459415	-0.0900555	1.14803	1.53146	0	0
